<svg xmlns="http://www.w3.org/2000/svg" xmlns:xlink="http://www.w3.org/1999/xlink" width="48" height="48" viewBox="0 0 48 48"><path fill="#795548" d="M14.5 11.93v1.502c0 .276.224.5.5.5s.5-.224.5-.5V11.93C15.339 11.971 15.174 12 15 12S14.661 11.971 14.5 11.93zM32.5 11.93v1.502c0 .276.225.5.5.5s.5-.224.5-.5V11.93C33.339 11.971 33.174 12 33 12S32.661 11.971 32.5 11.93zM23.5 11.93v1.502c0 .276.224.5.5.5s.5-.224.5-.5V11.93C24.339 11.971 24.174 12 24 12S23.661 11.971 23.5 11.93z"/><path fill="#FFB300" d="M17 10c0-1.104-2-4-2-4s-2 2.896-2 4c0 .932.639 1.706 1.5 1.93V11c0-.275.224-.5.5-.5s.5.225.5.5v.93C16.361 11.706 17 10.932 17 10zM35 10c0-1.104-2-4-2-4s-2 2.896-2 4c0 .932.639 1.706 1.5 1.93V11c0-.275.225-.5.5-.5s.5.225.5.5v.93C34.361 11.706 35 10.932 35 10zM26 10c0-1.104-2-4-2-4s-2 2.896-2 4c0 .932.639 1.706 1.5 1.93V11c0-.275.224-.5.5-.5s.5.225.5.5v.93C25.361 11.706 26 10.932 26 10z"/><path fill="#FF9800" d="M15 10A1 1 0 1 0 15 12 1 1 0 1 0 15 10zM33 10A1 1 0 1 0 33 12 1 1 0 1 0 33 10zM24 10A1 1 0 1 0 24 12 1 1 0 1 0 24 10z"/><g><path fill="#E65100" d="M15 10.5c-.276 0-.5.225-.5.5v.93C14.661 11.971 14.826 12 15 12s.339-.029.5-.07V11C15.5 10.725 15.276 10.5 15 10.5zM33 10.5c-.275 0-.5.225-.5.5v.93C32.661 11.971 32.826 12 33 12s.339-.029.5-.07V11C33.5 10.725 33.275 10.5 33 10.5zM24 10.5c-.276 0-.5.225-.5.5v.93C23.661 11.971 23.826 12 24 12s.339-.029.5-.07V11C24.5 10.725 24.276 10.5 24 10.5z"/></g><g><path fill="#F8BBD0" d="M17 28c0 .553-.447 1-1 1h-2c-.552 0-1-.447-1-1V14c0-.553.448-1 1-1h2c.553 0 1 .447 1 1V28zM35 27.895c0 .553-.447 1-1 1h-2c-.552 0-1-.447-1-1v-14c0-.553.448-1 1-1h2c.553 0 1 .447 1 1V27.895zM26 28c0 .553-.447 1-1 1h-2c-.552 0-1-.447-1-1V14c0-.553.448-1 1-1h2c.553 0 1 .447 1 1V28z"/></g><path fill="#632D21" d="M29.931,32.306c-4.706,3.53-8.074,3.557-11.93,0.063C14.48,35.569,11.438,35.843,8,33.2V40h32v-6.796C38.446,34.397,36.973,35,35.5,35C33.693,35,31.887,34.102,29.931,32.306z"/><path fill="#FF4081" d="M37,26H11c-1.657,0-3,1.344-3,3v1.985c0-0.133,0.022-0.26,0.039-0.389c3.439,3.297,5.738,3.196,9.254-0.317L18,29.572l0.707,0.707c3.646,3.646,6.041,3.629,10.668-0.074l0.699-0.559l0.633,0.633c3.516,3.514,5.814,3.611,9.254,0.316C39.978,30.725,40,30.852,40,30.985V29C40,27.344,38.657,26,37,26z"/><path fill="#FCE4EC" d="M30.707,30.279l-0.633-0.633l-0.699,0.559c-4.627,3.703-7.021,3.72-10.668,0.074L18,29.572l-0.707,0.707c-3.516,3.514-5.814,3.614-9.254,0.317C8.022,30.726,8,30.853,8,30.985V33.2c3.438,2.643,6.48,2.369,10.001-0.832c3.855,3.494,7.224,3.468,11.93-0.063C31.887,34.102,33.693,35,35.5,35c1.473,0,2.946-0.603,4.5-1.796v-2.219c0-0.134-0.022-0.261-0.039-0.39C36.521,33.891,34.223,33.793,30.707,30.279z"/><path fill="#9FA8DA" d="M6,39v1c0,1.104,0.896,2,2,2h32c1.104,0,2-0.896,2-2v-1H6z"/></svg>