<svg xmlns="http://www.w3.org/2000/svg" xmlns:xlink="http://www.w3.org/1999/xlink" viewBox="0 0 48 48"><path fill="#90caf9" d="M40 45L8 45 8 3 30 3 40 13z"/><path fill="#e1f5fe" d="M38.5 14L29 14 29 4.5z"/><path fill="#1e88e5" d="M15.857 36.515L14.143 35.485 20.801 24.387 26.801 30.387 32.143 21.485 33.857 22.515 27.199 33.613 21.199 27.613z"/><path fill="#0d47a1" d="M21 24A2 2 0 1 0 21 28 2 2 0 1 0 21 24zM15 34A2 2 0 1 0 15 38 2 2 0 1 0 15 34zM27 30A2 2 0 1 0 27 34 2 2 0 1 0 27 30zM33 20A2 2 0 1 0 33 24 2 2 0 1 0 33 20z"/></svg>