<svg xmlns="http://www.w3.org/2000/svg" xmlns:xlink="http://www.w3.org/1999/xlink" viewBox="0 0 48 48"><path fill="#fbc02d" d="M22,42H5c-1.1,0-2-0.9-2-2V12c0-1.1,0.9-2,2-2h17c1.1,0,2,0.9,2,2v28C24,41.1,23.1,42,22,42z"/><path fill="#f9a825" d="M22,10H5c-1.1,0-2,0.9-2,2v6h21v-6C24,10.9,23.1,10,22,10z"/><path fill="#f57c00" d="M8 12A2 2 0 1 0 8 16 2 2 0 1 0 8 12zM19 12A2 2 0 1 0 19 16 2 2 0 1 0 19 12z"/><path fill="#42a5f5" d="M43,42H26c-1.1,0-2-0.9-2-2V12c0-1.1,0.9-2,2-2h17c1.1,0,2,0.9,2,2v28C45,41.1,44.1,42,43,42z"/><path fill="#2196f3" d="M43,10H26c-1.1,0-2,0.9-2,2v6h21v-6C45,10.9,44.1,10,43,10z"/><path fill="#1976d2" d="M29 12A2 2 0 1 0 29 16 2 2 0 1 0 29 12zM40 12A2 2 0 1 0 40 16 2 2 0 1 0 40 12z"/><path fill="#b0bec5" d="M29 15c-.6 0-1-.4-1-1V7c0-.6.4-1 1-1s1 .4 1 1v7C30 14.6 29.6 15 29 15zM40 15c-.6 0-1-.4-1-1V7c0-.6.4-1 1-1s1 .4 1 1v7C41 14.6 40.6 15 40 15zM8 15c-.6 0-1-.4-1-1V7c0-.6.4-1 1-1s1 .4 1 1v7C9 14.6 8.6 15 8 15zM19 15c-.6 0-1-.4-1-1V7c0-.6.4-1 1-1s1 .4 1 1v7C20 14.6 19.6 15 19 15z"/><path fill="#fff" d="M16 36h-3V25.7l-3 .9v-2.5l5.7-2.1H16V36zM39 30.2c0 1.8-.4 3.3-1.2 4.3-.8 1-1.9 1.5-3.3 1.5-1.4 0-2.5-.5-3.3-1.5-.8-1-1.2-2.4-1.2-4.2v-2.5c0-1.8.4-3.3 1.2-4.3.8-1 1.9-1.5 3.3-1.5 1.4 0 2.5.5 3.3 1.5.8 1 1.2 2.4 1.2 4.3L39 30.2 39 30.2zM36 27.4c0-1-.1-1.7-.4-2.2-.2-.5-.6-.7-1.2-.7-.5 0-.9.2-1.1.7-.2.4-.4 1.1-.4 2v3.5c0 1 .1 1.8.4 2.2.2.5.6.7 1.2.7.5 0 .9-.2 1.1-.7.2-.5.4-1.2.4-2.2L36 27.4C36 27.4 36 27.4 36 27.4z"/></svg>