<svg xmlns="http://www.w3.org/2000/svg" xmlns:xlink="http://www.w3.org/1999/xlink" viewBox="0 0 48 48"><path fill="#37474f" d="M19.9 31.7H32.599999999999994V33.7H19.9z" transform="rotate(-64.437 26.249 32.75)"/><path fill="#37474f" d="M30.7 26.4H32.7V39.099999999999994H30.7z" transform="rotate(-25.565 31.745 32.748)"/><path fill="#37474f" d="M28,6h2v27h-2V6z"/><path fill="#cfd8dc" d="M15,9h28v21H15V9z"/><path fill="#607d8b" d="M22 38.5c0-.8.7-1.5 1.5-1.5s1.5.7 1.5 1.5S24.3 40 23.5 40 22 39.3 22 38.5M33 38.5c0-.8.7-1.5 1.5-1.5s1.5.7 1.5 1.5S35.3 40 34.5 40 33 39.3 33 38.5M14 8h30v4H14V8zM14 29h30v2H14V29z"/><path fill="#ffb74d" d="M11,14c-2.2,0-4-1.8-4-4s1.8-4,4-4s4,1.8,4,4S13.2,14,11,14"/><path fill="#455a64" d="M24,19H11c-1.1,0-2-0.9-2-2s0.9-2,2-2h13c1.1,0,2,0.9,2,2S25.1,19,24,19z"/><path fill="#455a64" d="M4,22v7l2.6,1.8L7.5,42h7L16,19c0,0-1.1-4-5-4S4,18.1,4,22"/><path fill="#d81b60" d="M35 17h3v9h-3V17zM31 20h3v6h-3V20zM27 22h3v4h-3V22z"/></svg>