<svg transform="scale(2)" width='1000' height='1000px' id="Ir4onRI6LI" xmlns="http://www.w3.org/2000/svg" viewBox="0 0 1000 1000" class="pbimage_pbimage__wrapper__image__0LEis false"><title>Machine Learning</title><defs><style> .cls-1{fill:#fff;} .cls-2{fill:#a5a5a5;} .cls-3{opacity:.4;} .cls-3, .cls-4, .cls-5, .cls-6, .cls-7, .cls-8{fill:none;} .cls-9{fill:#e6e6e6;} .cls-4{opacity:.03;} .cls-5{opacity:.07;} .cls-6{opacity:.08;} .cls-10{fill:#24285b;} .cls-11{fill:#000001;} .cls-7{opacity:.33;} .cls-8{opacity:.15;} .cls-12{fill:#ffd200;} .cls-13{fill:#68e1fd;}
 .cls-13{fill:#e1dcdc;}
 .cls-12{fill:#e6e6e6;}
 .cls-11{fill:#000001;}
 .cls-10{fill:#24285B;}
 .cls-9{fill:#E6E6E6;}
 .cls-2{fill:#A5A5A5;}
 .cls-1{fill:#FFFFFF;}</style></defs><g id="bg"><g class="cls-4"><rect class="cls-11" x="376.35" y="136.77" width="94.98" height="47.09" rx="12" ry="12"></rect></g><g class="cls-4"><rect class="cls-11" x="376.35" y="60.06" width="94.98" height="47.09" rx="12" ry="12"></rect></g></g><g id="machine"><path class="cls-12" d="m103.94,363.09c0-6.13-42.99-167.08,77.69-198.8,120.68-31.72,188.15,10.17,204.49,64.1,16.34,53.93,3.26,140.27,3.26,140.27l-285.45-5.56Z"></path><g class="cls-5"><path class="cls-11" d="m142.72,353.45c0-4.99-31.2-135.89,56.39-161.7,87.6-25.8,136.57,8.27,148.43,52.13,11.86,43.87,2.37,114.09,2.37,114.09l-207.19-4.53Z"></path></g><rect class="cls-10" x="220.1" y="190.74" width="37.79" height="54.28" rx="12.54" ry="12.54"></rect><polygon class="cls-9" points="231.74 90.76 243.16 32.6 250.73 90.76 231.74 90.76"></polygon><rect class="cls-10" x="203.25" y="79.28" width="75.57" height="38.6" rx="12" ry="12"></rect><rect class="cls-13" x="159.33" y="97.04" width="159.32" height="115.3" rx="38.47" ry="38.47"></rect><rect class="cls-10" x="182.31" y="111.98" width="113.36" height="83" rx="27.53" ry="27.53"></rect><path class="cls-2" d="m84.29,355.23h321.93c6.42,0,12.29,3.62,15.17,9.35l45.74,90.98c5.68,11.29-2.53,24.61-15.17,24.61H48.03c-12,0-20.22-12.11-15.77-23.27l36.25-90.98c2.57-6.46,8.82-10.69,15.77-10.69Z"></path><path class="cls-10" d="m141.28,364.72c-1.53,2.3-50.55,93.49-50.55,93.49l153.11-17.66,162.46,17.66-58.2-104.3-206.81,10.82Z"></path><path class="cls-13" d="m199.24,239.55l5.75-1.77c25.26-7.79,52.32-7.53,77.44.73h0c30.87,10.16,50.44,40.77,46.21,72.99-4.84,36.94-19.21,79.52-59.01,87.48-60.2,12.04-109.13-7.68-117.95-87.02-3.6-32.41,16.4-62.8,47.56-72.41Z"></path><g class="cls-3"><path class="cls-1" d="m215.43,270.2l3.48-1.07c15.29-4.71,31.67-4.56,46.86.44h0c18.68,6.15,30.52,24.67,27.97,44.17-2.93,22.35-11.62,48.12-35.71,52.94-36.43,7.29-66.04-4.65-71.38-52.66-2.18-19.61,9.92-38.01,28.78-43.82Z"></path></g><path class="cls-13" d="m137.45,370.85c-.77,2.3-52.85,73.53-52.85,73.53,0,0,95.57-26.04,159.23-3.83,0,0,91.21-13.79,162.46,0l-35.99-49.83-232.85-19.88Z"></path><circle class="cls-12" cx="242.38" cy="36.32" r="16.49"></circle><path class="cls-1" d="m138.98,331.79l-60.51,95.62s110.13-12.9,165.36,13.14l13.11-104.73s-46.72-19.35-117.96-4.03Z"></path><path class="cls-1" d="m360.34,335.82l45.95,89.6s-107.22-10.91-162.46,15.13l13.11-104.73s32.17-15.32,103.4,0Z"></path><g class="cls-6"><path class="cls-11" d="m360.34,335.82l45.95,89.6s-107.22-10.91-162.46,15.13l13.11-104.73s32.17-15.32,103.4,0Z"></path></g><path class="cls-10" d="m301.31,399.21l-5.15-21.39c24.53-5.93,67.03-21.63,76.63-38.55,1.76-3.11,2.14-5.81,1.22-8.77-10.29-33.12-53.75-56.9-54.19-57.14l10.45-19.36c2.11,1.14,51.81,28.38,64.74,69.97,2.72,8.75,1.65,17.8-3.11,26.17-17.43,30.68-83.17,47.28-90.61,49.07Z"></path><circle class="cls-13" cx="289.49" cy="388.67" r="22.92"></circle><path class="cls-10" d="m151.61,274.56c-1.05-.15-26.12-3.88-53.36-12.68-38.82-12.55-62.13-28.99-69.27-48.89-7.81-21.75,8.32-46.94,47.93-74.88,26.85-18.94,55-32.64,56.18-33.21l9.59,19.8c-.27.13-27.9,13.59-53.28,31.52-28.68,20.26-43.53,38.7-39.71,49.33,4.58,12.77,24.23,25.34,55.33,35.39,25.51,8.24,49.55,11.81,49.79,11.85l-3.19,21.77Z"></path><circle class="cls-13" cx="138.85" cy="114.81" r="22.92"></circle><circle class="cls-13" cx="153.2" cy="263.68" r="21.45"></circle><circle class="cls-13" cx="325.06" cy="263.68" r="21.45"></circle><g class="cls-3"><circle class="cls-1" cx="153.2" cy="263.68" r="21.45"></circle></g><g class="cls-3"><circle class="cls-1" cx="325.06" cy="263.68" r="21.45"></circle></g><g class="cls-7"><path class="cls-2" d="m119.78,402.94c-.89,0-1.7-.6-1.93-1.5-.28-1.07.36-2.16,1.43-2.44,2.43-.63,59.98-15.34,101.49-.58,1.04.37,1.58,1.51,1.21,2.55-.37,1.04-1.52,1.58-2.55,1.21-40.34-14.35-98.55.53-99.14.68-.17.04-.34.06-.5.06Z"></path></g><g class="cls-7"><path class="cls-2" d="m232.02,378.13c-.23,0-.46-.04-.68-.12-40.24-14.64-98.55-.2-99.14-.05-1.07.27-2.16-.38-2.43-1.45-.27-1.07.38-2.16,1.45-2.43,2.43-.62,60.08-14.9,101.49.17,1.04.38,1.57,1.53,1.19,2.56-.29.81-1.06,1.32-1.88,1.32Z"></path></g><g class="cls-7"><path class="cls-2" d="m237.37,355.91c-.26,0-.52-.05-.78-.16-37.6-15.91-92.92-3.39-93.48-3.26-1.07.25-2.15-.42-2.4-1.5-.25-1.08.42-2.15,1.5-2.4,2.32-.54,57.13-12.95,95.94,3.47,1.02.43,1.49,1.6,1.06,2.62-.32.76-1.06,1.22-1.84,1.22Z"></path></g><ellipse class="cls-1" cx="214.22" cy="162.67" rx="16.16" ry="17.87"></ellipse><ellipse class="cls-1" cx="267.84" cy="162.67" rx="16.16" ry="17.87"></ellipse><g class="cls-8"><rect class="cls-1" x="233.12" y="121.96" width="45.7" height="14.04" rx="7.02" ry="7.02"></rect></g><g class="cls-8"><rect class="cls-1" x="211.16" y="121.19" width="15.57" height="15.57" rx="7.79" ry="7.79"></rect></g><path class="cls-2" d="m309.31,89.47c-.42-.48-.69-1.1-.75-1.78l-1.33-17.33c-.13-1.69,1.14-3.17,2.83-3.3,1.69-.13,3.17,1.14,3.3,2.83l1.33,17.33c.13,1.69-1.14,3.17-2.83,3.3-1.01.08-1.94-.34-2.55-1.05Z"></path><path class="cls-2" d="m329.24,97.74c-1-1.15-1.02-2.9.03-4.07l11.57-12.96c1.13-1.27,3.08-1.38,4.34-.25,1.27,1.12,1.38,3.08.25,4.34l-11.57,12.96c-1.13,1.27-3.08,1.38-4.34.25-.1-.09-.19-.18-.27-.27Z"></path><path class="cls-2" d="m336.35,118.66c-.74-.84-.98-2.06-.54-3.17.63-1.58,2.42-2.34,4-1.71l16.13,6.47c1.57.63,2.34,2.42,1.71,4-.63,1.58-2.42,2.34-4,1.71l-16.13-6.47c-.47-.19-.86-.48-1.17-.83Z"></path></g></svg>