<svg id="visual" viewBox="0 0 960 540" width="960" height="540" xmlns="http://www.w3.org/2000/svg" xmlns:xlink="http://www.w3.org/1999/xlink" version="1.1"><rect x="0" y="0" width="960" height="540" fill="#FFFFFF"></rect><g transform="translate(995.1945273957934 558.8956872676854)"><path d="M242.9 -394.5C308.9 -335.6 352.3 -258.2 364.1 -181.2C376 -104.3 356.3 -28 352.8 56.3C349.3 140.5 362.1 232.7 331.3 311C300.6 389.2 226.4 453.7 147.6 455C68.8 456.4 -14.5 394.7 -82.3 345.2C-150.2 295.6 -202.6 258.3 -249.4 211.9C-296.1 165.5 -337.1 109.9 -376.2 35.8C-415.2 -38.3 -452.3 -130.9 -433 -207.9C-413.7 -285 -337.9 -346.5 -256.4 -398.3C-174.8 -450 -87.4 -492 0.5 -492.8C88.5 -493.7 177 -453.4 242.9 -394.5" fill="#ffc09f"></path></g></svg>