<svg xmlns="http://www.w3.org/2000/svg" xmlns:xlink="http://www.w3.org/1999/xlink" viewBox="0 0 48 48"><path fill="#42a5f5" d="M28,7c-2.209,0-4,1.79-4,4v25c-1.657,0-3,1.344-3,3c0,1.656,1.343,3,3,3c1.305,0,2.403-0.838,2.816-2c0.376,0,0.769,0,1.184,0h20V7H28z"/><path fill="#0d47a1" d="M28,15h8v2h-8V15z M36,19h-8v2h8V19z M28,25h8v-2h-8V25z M38,17h2v-2h-2V17z M40,19h-2v2h2V19z M44,19h-2v2h2V19z M42,25h2v-2h-2V25z M42,17h2v-2h-2V17z"/><path fill="#90caf9" d="M20,40H0L0,7h20c2.209,0,4,1.79,4,4v29C24,40,22.209,40,20,40"/><path fill="#1976d2" d="M4,15h8v2H4V15z M12,19H4v2h8V19z M4,25h8v-2H4V25z M4,29h8v-2H4V29z M4,33h8v-2H4V33z M14,17h2v-2h-2V17z M16,19h-2v2h2V19z M20,19h-2v2h2V19z M18,25h2v-2h-2V25z M14,29h2v-2h-2V29z M18,17h2v-2h-2V17z M18,29h2v-2h-2V29z M18,33h2v-2h-2V33z"/></svg>